<svg version="1.1" id="Layer_1" xmlns="http://www.w3.org/2000/svg" xmlns:xlink="http://www.w3.org/1999/xlink" x="0px" y="0px"
	 width="100%" viewBox="0 0 1024 1024" enable-background="new 0 0 1024 1024" xml:space="preserve">
<path fill="#000000" opacity="1.000000" stroke="none" 
	d="
M747.187256,244.832718 
	C804.021484,307.790924 860.632629,370.473175 917.238281,433.160461 
	C929.072510,446.266144 940.663330,459.600189 952.763245,472.455383 
	C969.490723,490.226898 969.652344,516.910889 954.017517,534.451233 
	C922.877258,569.386780 892.464294,604.971191 861.802734,640.332642 
	C829.720764,677.332153 797.714905,714.397644 765.643250,751.406128 
	C755.280945,763.363464 745.056763,775.453796 734.334900,787.082581 
	C721.590393,800.905029 702.816772,804.489014 686.381042,796.890869 
	C670.285034,789.449768 659.914490,771.487549 661.761353,753.670593 
	C662.710632,744.512695 666.403381,736.453308 672.490112,729.414246 
	C702.118042,695.150818 731.671997,660.823486 761.232788,626.502197 
	C783.295349,600.886597 805.315369,575.234375 827.380371,549.620850 
	C838.031982,537.256165 848.751465,524.950012 859.424805,512.604004 
	C865.366821,505.730804 865.244629,503.022461 858.823059,495.902832 
	C828.028076,461.759827 797.237488,427.612885 766.447693,393.465179 
	C732.648315,355.979706 698.893738,318.453674 665.030212,281.026245 
	C653.758667,268.568542 649.371704,254.429092 654.559448,238.213715 
	C659.886658,221.562164 671.577271,211.373474 688.719299,208.185318 
	C700.833801,205.932190 711.947632,209.401642 721.317261,217.267899 
	C730.913147,225.324097 738.248352,235.611588 747.187256,244.832718 
z"/>
<path fill="#000000" opacity="1.000000" stroke="none" 
	d="
M198.235260,428.215179 
	C178.369110,451.361023 158.674377,474.186920 139.124710,497.136444 
	C133.560287,503.668549 133.910385,506.701324 139.700699,513.138733 
	C178.912781,556.732788 218.128189,600.323853 257.294067,643.959412 
	C281.439545,670.860352 305.666260,697.691284 329.545532,724.827271 
	C349.060455,747.003723 339.471283,785.755676 308.224457,793.603210 
	C292.423645,797.571533 278.641998,793.512817 267.874359,781.544128 
	C233.560898,743.402893 199.605042,704.940186 165.439850,666.665283 
	C126.391525,622.919800 87.312523,579.201416 48.153187,535.555298 
	C32.137501,517.704651 30.948929,494.632965 46.338913,476.076813 
	C64.939995,453.648895 84.181862,431.752289 103.154114,409.632385 
	C118.219444,392.067566 133.283737,374.501831 148.371155,356.955963 
	C171.926071,329.562836 195.488159,302.175873 219.070511,274.806427 
	C233.634613,257.903473 248.333206,241.115494 262.797913,224.128159 
	C272.505676,212.727386 284.504578,206.997864 299.589294,207.627701 
	C320.009155,208.480301 337.853607,227.134155 338.470428,247.490097 
	C338.870209,260.685181 334.298584,271.394043 325.844818,281.100525 
	C287.882172,324.688721 250.033249,368.375977 212.150391,412.033661 
	C207.565521,417.317413 203.023560,422.638397 198.235260,428.215179 
z"/>
<path fill="#000000" opacity="1.000000" stroke="none" 
	d="
M381.651611,675.999878 
	C381.651489,620.354919 381.649017,565.210022 381.653625,510.065063 
	C381.654663,497.721344 386.619812,492.676605 398.784790,492.675720 
	C463.259369,492.670898 527.733948,492.670654 592.208557,492.679596 
	C604.001587,492.681213 609.244141,497.871033 609.291260,509.763916 
	C609.357361,526.423767 609.354309,543.084229 609.281738,559.744019 
	C609.238464,569.676819 605.038086,574.374939 595.192810,575.570557 
	C592.064880,575.950562 588.885437,576.035339 585.729492,576.036316 
	C548.577576,576.047546 511.425659,576.016296 474.273743,575.998535 
	C467.984955,575.995544 467.363892,576.562073 467.360687,582.791504 
	C467.342194,618.777344 467.350525,654.763123 467.345825,690.748962 
	C467.344299,702.481384 463.170929,707.742554 451.639008,708.067505 
	C433.162323,708.588257 414.652618,708.527710 396.172119,708.081665 
	C386.519470,707.848694 381.702942,701.854309 381.657013,691.993652 
	C381.632965,686.829102 381.652191,681.664429 381.651611,675.999878 
z"/>
<path fill="#000000" opacity="1.000000" stroke="none" 
	d="
M572.000000,404.248352 
	C514.695129,404.249939 457.890289,404.252472 401.085449,404.250000 
	C398.092407,404.249847 395.111816,404.325256 392.164581,403.480286 
	C385.792938,401.653595 381.765839,397.073303 381.717621,390.508057 
	C381.579315,371.685181 381.562195,352.859924 381.709625,334.037231 
	C381.772400,326.020233 387.636780,320.685089 396.049713,320.674469 
	C430.865509,320.630585 465.681396,320.656372 500.497253,320.656860 
	C531.481750,320.657288 562.466187,320.646484 593.450684,320.665405 
	C603.536194,320.671570 609.079102,325.735016 609.217712,335.862335 
	C609.461609,353.683380 609.431519,371.511444 609.244812,389.333740 
	C609.148743,398.510681 603.332214,404.010681 593.988464,404.213257 
	C586.828796,404.368469 579.663025,404.246765 572.000000,404.248352 
z"/>
</svg>